<mxfile host="Electron" agent="Mozilla/5.0 (Windows NT 10.0; Win64; x64) AppleWebKit/537.36 (KHTML, like Gecko) draw.io/26.0.16 Chrome/132.0.6834.196 Electron/34.2.0 Safari/537.36" version="26.0.16">
  <diagram name="페이지-1" id="WFK3oivLBN8lYvQ-zg6V">
    <mxGraphModel dx="946" dy="1219" grid="1" gridSize="10" guides="1" tooltips="1" connect="1" arrows="1" fold="1" page="1" pageScale="1" pageWidth="1169" pageHeight="827" background="none" math="0" shadow="0">
      <root>
        <mxCell id="0" />
        <mxCell id="1" parent="0" />
        <mxCell id="IZnmvI-X00dT2r78mMLM-128" value="" style="group" vertex="1" connectable="0" parent="1">
          <mxGeometry x="10" y="10" width="1089.66" height="790" as="geometry" />
        </mxCell>
        <mxCell id="4jsfSV7-COeRs6q7deXf-24" value="" style="group;rounded=0;" parent="IZnmvI-X00dT2r78mMLM-128" vertex="1" connectable="0">
          <mxGeometry x="40.86225" y="367.7586206896552" width="163.449" height="313.2758620689655" as="geometry" />
        </mxCell>
        <mxCell id="IZnmvI-X00dT2r78mMLM-127" value="" style="group" vertex="1" connectable="0" parent="4jsfSV7-COeRs6q7deXf-24">
          <mxGeometry x="27.241500000000002" width="136.2075" height="279.4693103448276" as="geometry" />
        </mxCell>
        <mxCell id="4jsfSV7-COeRs6q7deXf-25" style="edgeStyle=orthogonalEdgeStyle;rounded=0;orthogonalLoop=1;jettySize=auto;html=1;entryX=0.5;entryY=0;entryDx=0;entryDy=0;" parent="IZnmvI-X00dT2r78mMLM-127" source="4jsfSV7-COeRs6q7deXf-26" target="4jsfSV7-COeRs6q7deXf-28" edge="1">
          <mxGeometry relative="1" as="geometry" />
        </mxCell>
        <mxCell id="4jsfSV7-COeRs6q7deXf-26" value="START" style="ellipse;whiteSpace=wrap;html=1;aspect=fixed;rounded=0;" parent="IZnmvI-X00dT2r78mMLM-127" vertex="1">
          <mxGeometry x="24.51735" width="87.17364447984906" height="87.17364447984906" as="geometry" />
        </mxCell>
        <mxCell id="4jsfSV7-COeRs6q7deXf-27" style="edgeStyle=orthogonalEdgeStyle;rounded=0;orthogonalLoop=1;jettySize=auto;html=1;entryX=0.5;entryY=0;entryDx=0;entryDy=0;" parent="IZnmvI-X00dT2r78mMLM-127" source="4jsfSV7-COeRs6q7deXf-28" target="4jsfSV7-COeRs6q7deXf-33" edge="1">
          <mxGeometry relative="1" as="geometry" />
        </mxCell>
        <mxCell id="4jsfSV7-COeRs6q7deXf-28" value="0" style="rounded=0;whiteSpace=wrap;html=1;" parent="IZnmvI-X00dT2r78mMLM-127" vertex="1">
          <mxGeometry y="122.59098651210167" width="136.2075" height="49.227469823914745" as="geometry" />
        </mxCell>
        <mxCell id="4jsfSV7-COeRs6q7deXf-33" value="tick" style="rhombus;whiteSpace=wrap;html=1;rounded=0;" parent="IZnmvI-X00dT2r78mMLM-127" vertex="1">
          <mxGeometry y="217.93497306493413" width="136.2075" height="61.53433727989344" as="geometry" />
        </mxCell>
        <mxCell id="4jsfSV7-COeRs6q7deXf-29" style="edgeStyle=orthogonalEdgeStyle;rounded=0;orthogonalLoop=1;jettySize=auto;html=1;entryX=0;entryY=0.5;entryDx=0;entryDy=0;" parent="IZnmvI-X00dT2r78mMLM-127" source="4jsfSV7-COeRs6q7deXf-33" target="4jsfSV7-COeRs6q7deXf-26" edge="1">
          <mxGeometry relative="1" as="geometry">
            <Array as="points">
              <mxPoint x="-27.241500000000002" y="249.25862068965517" />
              <mxPoint x="-27.241500000000002" y="43.58620689655172" />
            </Array>
          </mxGeometry>
        </mxCell>
        <mxCell id="4jsfSV7-COeRs6q7deXf-30" value="0" style="edgeLabel;html=1;align=center;verticalAlign=middle;resizable=0;points=[];rounded=0;" parent="4jsfSV7-COeRs6q7deXf-29" vertex="1" connectable="0">
          <mxGeometry x="-0.8898" y="-1" relative="1" as="geometry">
            <mxPoint y="8" as="offset" />
          </mxGeometry>
        </mxCell>
        <mxCell id="4jsfSV7-COeRs6q7deXf-31" style="edgeStyle=orthogonalEdgeStyle;rounded=0;orthogonalLoop=1;jettySize=auto;html=1;entryX=0.5;entryY=0;entryDx=0;entryDy=0;" parent="IZnmvI-X00dT2r78mMLM-128" source="4jsfSV7-COeRs6q7deXf-33" target="4jsfSV7-COeRs6q7deXf-36" edge="1">
          <mxGeometry relative="1" as="geometry">
            <mxPoint x="245.17350000000002" y="27.241379310344826" as="targetPoint" />
            <Array as="points">
              <mxPoint x="245.17350000000002" y="617.0172413793103" />
              <mxPoint x="245.17350000000002" />
              <mxPoint x="367.76025000000004" />
            </Array>
          </mxGeometry>
        </mxCell>
        <mxCell id="4jsfSV7-COeRs6q7deXf-32" value="1" style="edgeLabel;html=1;align=center;verticalAlign=middle;resizable=0;points=[];rounded=0;" parent="4jsfSV7-COeRs6q7deXf-31" vertex="1" connectable="0">
          <mxGeometry x="0.4426" y="1" relative="1" as="geometry">
            <mxPoint x="-24" y="526" as="offset" />
          </mxGeometry>
        </mxCell>
        <mxCell id="4jsfSV7-COeRs6q7deXf-46" value="" style="group;rounded=0;" parent="IZnmvI-X00dT2r78mMLM-128" vertex="1" connectable="0">
          <mxGeometry x="272.415" y="367.7586206896552" width="163.449" height="313.2758620689655" as="geometry" />
        </mxCell>
        <mxCell id="4jsfSV7-COeRs6q7deXf-47" style="edgeStyle=orthogonalEdgeStyle;rounded=0;orthogonalLoop=1;jettySize=auto;html=1;entryX=0.5;entryY=0;entryDx=0;entryDy=0;" parent="4jsfSV7-COeRs6q7deXf-46" source="4jsfSV7-COeRs6q7deXf-48" target="4jsfSV7-COeRs6q7deXf-50" edge="1">
          <mxGeometry relative="1" as="geometry" />
        </mxCell>
        <mxCell id="4jsfSV7-COeRs6q7deXf-48" value="D1" style="ellipse;whiteSpace=wrap;html=1;aspect=fixed;rounded=0;" parent="4jsfSV7-COeRs6q7deXf-46" vertex="1">
          <mxGeometry x="51.75885" width="87.17364447984906" height="87.17364447984906" as="geometry" />
        </mxCell>
        <mxCell id="4jsfSV7-COeRs6q7deXf-49" style="edgeStyle=orthogonalEdgeStyle;rounded=0;orthogonalLoop=1;jettySize=auto;html=1;entryX=0.5;entryY=0;entryDx=0;entryDy=0;" parent="4jsfSV7-COeRs6q7deXf-46" source="4jsfSV7-COeRs6q7deXf-50" target="4jsfSV7-COeRs6q7deXf-55" edge="1">
          <mxGeometry relative="1" as="geometry" />
        </mxCell>
        <mxCell id="4jsfSV7-COeRs6q7deXf-50" value="DATA[1]" style="rounded=0;whiteSpace=wrap;html=1;" parent="4jsfSV7-COeRs6q7deXf-46" vertex="1">
          <mxGeometry x="27.241500000000002" y="122.59098651210167" width="136.2075" height="49.227469823914745" as="geometry" />
        </mxCell>
        <mxCell id="4jsfSV7-COeRs6q7deXf-51" style="edgeStyle=orthogonalEdgeStyle;rounded=0;orthogonalLoop=1;jettySize=auto;html=1;entryX=0;entryY=0.5;entryDx=0;entryDy=0;" parent="4jsfSV7-COeRs6q7deXf-46" source="4jsfSV7-COeRs6q7deXf-55" target="4jsfSV7-COeRs6q7deXf-48" edge="1">
          <mxGeometry relative="1" as="geometry">
            <Array as="points">
              <mxPoint y="249.25862068965517" />
              <mxPoint y="43.58620689655172" />
            </Array>
          </mxGeometry>
        </mxCell>
        <mxCell id="4jsfSV7-COeRs6q7deXf-52" value="0" style="edgeLabel;html=1;align=center;verticalAlign=middle;resizable=0;points=[];rounded=0;" parent="4jsfSV7-COeRs6q7deXf-51" vertex="1" connectable="0">
          <mxGeometry x="-0.8898" y="-1" relative="1" as="geometry">
            <mxPoint y="8" as="offset" />
          </mxGeometry>
        </mxCell>
        <mxCell id="4jsfSV7-COeRs6q7deXf-55" value="tick" style="rhombus;whiteSpace=wrap;html=1;rounded=0;" parent="4jsfSV7-COeRs6q7deXf-46" vertex="1">
          <mxGeometry x="27.241500000000002" y="217.93497306493413" width="136.2075" height="61.53433727989344" as="geometry" />
        </mxCell>
        <mxCell id="4jsfSV7-COeRs6q7deXf-41" style="edgeStyle=orthogonalEdgeStyle;rounded=0;orthogonalLoop=1;jettySize=auto;html=1;entryX=0.5;entryY=0;entryDx=0;entryDy=0;" parent="IZnmvI-X00dT2r78mMLM-128" source="4jsfSV7-COeRs6q7deXf-43" target="4jsfSV7-COeRs6q7deXf-48" edge="1">
          <mxGeometry relative="1" as="geometry">
            <mxPoint x="367.760865346099" y="340.51724137931035" as="targetPoint" />
          </mxGeometry>
        </mxCell>
        <mxCell id="4jsfSV7-COeRs6q7deXf-42" value="1" style="edgeLabel;html=1;align=center;verticalAlign=middle;resizable=0;points=[];rounded=0;" parent="4jsfSV7-COeRs6q7deXf-41" vertex="1" connectable="0">
          <mxGeometry x="0.4426" y="1" relative="1" as="geometry">
            <mxPoint x="-11" y="-23" as="offset" />
          </mxGeometry>
        </mxCell>
        <mxCell id="4jsfSV7-COeRs6q7deXf-56" value="" style="group;rounded=0;" parent="IZnmvI-X00dT2r78mMLM-128" vertex="1" connectable="0">
          <mxGeometry x="490.34700000000004" y="27.241379310344826" width="163.449" height="313.2758620689655" as="geometry" />
        </mxCell>
        <mxCell id="4jsfSV7-COeRs6q7deXf-57" style="edgeStyle=orthogonalEdgeStyle;rounded=0;orthogonalLoop=1;jettySize=auto;html=1;entryX=0.5;entryY=0;entryDx=0;entryDy=0;" parent="4jsfSV7-COeRs6q7deXf-56" source="4jsfSV7-COeRs6q7deXf-58" target="4jsfSV7-COeRs6q7deXf-60" edge="1">
          <mxGeometry relative="1" as="geometry" />
        </mxCell>
        <mxCell id="4jsfSV7-COeRs6q7deXf-58" value="D2" style="ellipse;whiteSpace=wrap;html=1;aspect=fixed;rounded=0;" parent="4jsfSV7-COeRs6q7deXf-56" vertex="1">
          <mxGeometry x="51.75885" width="87.17364447984906" height="87.17364447984906" as="geometry" />
        </mxCell>
        <mxCell id="4jsfSV7-COeRs6q7deXf-59" style="edgeStyle=orthogonalEdgeStyle;rounded=0;orthogonalLoop=1;jettySize=auto;html=1;entryX=0.5;entryY=0;entryDx=0;entryDy=0;" parent="4jsfSV7-COeRs6q7deXf-56" source="4jsfSV7-COeRs6q7deXf-60" target="4jsfSV7-COeRs6q7deXf-63" edge="1">
          <mxGeometry relative="1" as="geometry" />
        </mxCell>
        <mxCell id="4jsfSV7-COeRs6q7deXf-60" value="DATA[2]" style="rounded=0;whiteSpace=wrap;html=1;" parent="4jsfSV7-COeRs6q7deXf-56" vertex="1">
          <mxGeometry x="27.241500000000002" y="122.59098651210167" width="136.2075" height="49.227469823914745" as="geometry" />
        </mxCell>
        <mxCell id="4jsfSV7-COeRs6q7deXf-61" style="edgeStyle=orthogonalEdgeStyle;rounded=0;orthogonalLoop=1;jettySize=auto;html=1;entryX=0;entryY=0.5;entryDx=0;entryDy=0;" parent="4jsfSV7-COeRs6q7deXf-56" source="4jsfSV7-COeRs6q7deXf-63" target="4jsfSV7-COeRs6q7deXf-58" edge="1">
          <mxGeometry relative="1" as="geometry">
            <Array as="points">
              <mxPoint y="249.25862068965517" />
              <mxPoint y="43.58620689655172" />
            </Array>
          </mxGeometry>
        </mxCell>
        <mxCell id="4jsfSV7-COeRs6q7deXf-62" value="0" style="edgeLabel;html=1;align=center;verticalAlign=middle;resizable=0;points=[];rounded=0;" parent="4jsfSV7-COeRs6q7deXf-61" vertex="1" connectable="0">
          <mxGeometry x="-0.8898" y="-1" relative="1" as="geometry">
            <mxPoint y="8" as="offset" />
          </mxGeometry>
        </mxCell>
        <mxCell id="4jsfSV7-COeRs6q7deXf-63" value="tick" style="rhombus;whiteSpace=wrap;html=1;rounded=0;" parent="4jsfSV7-COeRs6q7deXf-56" vertex="1">
          <mxGeometry x="27.241500000000002" y="217.93497306493413" width="136.2075" height="61.53433727989344" as="geometry" />
        </mxCell>
        <mxCell id="4jsfSV7-COeRs6q7deXf-64" value="" style="group;rounded=0;" parent="IZnmvI-X00dT2r78mMLM-128" vertex="1" connectable="0">
          <mxGeometry x="490.34700000000004" y="367.7586206896552" width="163.449" height="313.2758620689655" as="geometry" />
        </mxCell>
        <mxCell id="4jsfSV7-COeRs6q7deXf-65" style="edgeStyle=orthogonalEdgeStyle;rounded=0;orthogonalLoop=1;jettySize=auto;html=1;entryX=0.5;entryY=0;entryDx=0;entryDy=0;" parent="4jsfSV7-COeRs6q7deXf-64" source="4jsfSV7-COeRs6q7deXf-66" target="4jsfSV7-COeRs6q7deXf-68" edge="1">
          <mxGeometry relative="1" as="geometry" />
        </mxCell>
        <mxCell id="4jsfSV7-COeRs6q7deXf-66" value="D3" style="ellipse;whiteSpace=wrap;html=1;aspect=fixed;rounded=0;" parent="4jsfSV7-COeRs6q7deXf-64" vertex="1">
          <mxGeometry x="51.75885" width="87.17364447984906" height="87.17364447984906" as="geometry" />
        </mxCell>
        <mxCell id="4jsfSV7-COeRs6q7deXf-67" style="edgeStyle=orthogonalEdgeStyle;rounded=0;orthogonalLoop=1;jettySize=auto;html=1;entryX=0.5;entryY=0;entryDx=0;entryDy=0;" parent="4jsfSV7-COeRs6q7deXf-64" source="4jsfSV7-COeRs6q7deXf-68" target="4jsfSV7-COeRs6q7deXf-73" edge="1">
          <mxGeometry relative="1" as="geometry" />
        </mxCell>
        <mxCell id="4jsfSV7-COeRs6q7deXf-68" value="DATA[3]" style="rounded=0;whiteSpace=wrap;html=1;" parent="4jsfSV7-COeRs6q7deXf-64" vertex="1">
          <mxGeometry x="27.241500000000002" y="122.59098651210167" width="136.2075" height="49.227469823914745" as="geometry" />
        </mxCell>
        <mxCell id="4jsfSV7-COeRs6q7deXf-69" style="edgeStyle=orthogonalEdgeStyle;rounded=0;orthogonalLoop=1;jettySize=auto;html=1;entryX=0;entryY=0.5;entryDx=0;entryDy=0;" parent="4jsfSV7-COeRs6q7deXf-64" source="4jsfSV7-COeRs6q7deXf-73" target="4jsfSV7-COeRs6q7deXf-66" edge="1">
          <mxGeometry relative="1" as="geometry">
            <Array as="points">
              <mxPoint y="249.25862068965517" />
              <mxPoint y="43.58620689655172" />
            </Array>
          </mxGeometry>
        </mxCell>
        <mxCell id="4jsfSV7-COeRs6q7deXf-70" value="0" style="edgeLabel;html=1;align=center;verticalAlign=middle;resizable=0;points=[];rounded=0;" parent="4jsfSV7-COeRs6q7deXf-69" vertex="1" connectable="0">
          <mxGeometry x="-0.8898" y="-1" relative="1" as="geometry">
            <mxPoint y="8" as="offset" />
          </mxGeometry>
        </mxCell>
        <mxCell id="4jsfSV7-COeRs6q7deXf-73" value="tick" style="rhombus;whiteSpace=wrap;html=1;rounded=0;" parent="4jsfSV7-COeRs6q7deXf-64" vertex="1">
          <mxGeometry x="27.241500000000002" y="217.93497306493413" width="136.2075" height="61.53433727989344" as="geometry" />
        </mxCell>
        <mxCell id="4jsfSV7-COeRs6q7deXf-74" style="edgeStyle=orthogonalEdgeStyle;rounded=0;orthogonalLoop=1;jettySize=auto;html=1;entryX=0.5;entryY=0;entryDx=0;entryDy=0;" parent="IZnmvI-X00dT2r78mMLM-128" source="4jsfSV7-COeRs6q7deXf-63" target="4jsfSV7-COeRs6q7deXf-66" edge="1">
          <mxGeometry relative="1" as="geometry">
            <mxPoint x="585.6928653460991" y="340.51724137931035" as="targetPoint" />
          </mxGeometry>
        </mxCell>
        <mxCell id="4jsfSV7-COeRs6q7deXf-75" value="1" style="edgeLabel;html=1;align=center;verticalAlign=middle;resizable=0;points=[];rounded=0;" parent="4jsfSV7-COeRs6q7deXf-74" vertex="1" connectable="0">
          <mxGeometry x="0.4426" y="1" relative="1" as="geometry">
            <mxPoint x="-11" y="-23" as="offset" />
          </mxGeometry>
        </mxCell>
        <mxCell id="4jsfSV7-COeRs6q7deXf-53" style="edgeStyle=orthogonalEdgeStyle;rounded=0;orthogonalLoop=1;jettySize=auto;html=1;entryX=0.5;entryY=0;entryDx=0;entryDy=0;" parent="IZnmvI-X00dT2r78mMLM-128" source="4jsfSV7-COeRs6q7deXf-55" target="4jsfSV7-COeRs6q7deXf-58" edge="1">
          <mxGeometry relative="1" as="geometry">
            <mxPoint x="367.760865346099" y="681.0344827586207" as="targetPoint" />
            <Array as="points">
              <mxPoint x="463.10550000000006" y="617.0172413793103" />
              <mxPoint x="463.10550000000006" />
              <mxPoint x="585.6922500000001" />
            </Array>
          </mxGeometry>
        </mxCell>
        <mxCell id="4jsfSV7-COeRs6q7deXf-54" value="1" style="edgeLabel;html=1;align=center;verticalAlign=middle;resizable=0;points=[];rounded=0;" parent="4jsfSV7-COeRs6q7deXf-53" vertex="1" connectable="0">
          <mxGeometry x="0.4426" y="1" relative="1" as="geometry">
            <mxPoint x="-24" y="529" as="offset" />
          </mxGeometry>
        </mxCell>
        <mxCell id="4jsfSV7-COeRs6q7deXf-76" value="" style="group;rounded=0;" parent="IZnmvI-X00dT2r78mMLM-128" vertex="1" connectable="0">
          <mxGeometry x="708.2790000000001" y="27.241379310344826" width="163.449" height="313.2758620689655" as="geometry" />
        </mxCell>
        <mxCell id="4jsfSV7-COeRs6q7deXf-77" style="edgeStyle=orthogonalEdgeStyle;rounded=0;orthogonalLoop=1;jettySize=auto;html=1;entryX=0.5;entryY=0;entryDx=0;entryDy=0;" parent="4jsfSV7-COeRs6q7deXf-76" source="4jsfSV7-COeRs6q7deXf-78" target="4jsfSV7-COeRs6q7deXf-80" edge="1">
          <mxGeometry relative="1" as="geometry" />
        </mxCell>
        <mxCell id="4jsfSV7-COeRs6q7deXf-78" value="D4" style="ellipse;whiteSpace=wrap;html=1;aspect=fixed;rounded=0;" parent="4jsfSV7-COeRs6q7deXf-76" vertex="1">
          <mxGeometry x="51.75885" width="87.17364447984906" height="87.17364447984906" as="geometry" />
        </mxCell>
        <mxCell id="4jsfSV7-COeRs6q7deXf-79" style="edgeStyle=orthogonalEdgeStyle;rounded=0;orthogonalLoop=1;jettySize=auto;html=1;entryX=0.5;entryY=0;entryDx=0;entryDy=0;" parent="4jsfSV7-COeRs6q7deXf-76" source="4jsfSV7-COeRs6q7deXf-80" target="4jsfSV7-COeRs6q7deXf-83" edge="1">
          <mxGeometry relative="1" as="geometry" />
        </mxCell>
        <mxCell id="4jsfSV7-COeRs6q7deXf-80" value="DATA[4]" style="rounded=0;whiteSpace=wrap;html=1;" parent="4jsfSV7-COeRs6q7deXf-76" vertex="1">
          <mxGeometry x="27.241500000000002" y="122.59098651210167" width="136.2075" height="49.227469823914745" as="geometry" />
        </mxCell>
        <mxCell id="4jsfSV7-COeRs6q7deXf-81" style="edgeStyle=orthogonalEdgeStyle;rounded=0;orthogonalLoop=1;jettySize=auto;html=1;entryX=0;entryY=0.5;entryDx=0;entryDy=0;" parent="4jsfSV7-COeRs6q7deXf-76" source="4jsfSV7-COeRs6q7deXf-83" target="4jsfSV7-COeRs6q7deXf-78" edge="1">
          <mxGeometry relative="1" as="geometry">
            <Array as="points">
              <mxPoint y="249.25862068965517" />
              <mxPoint y="43.58620689655172" />
            </Array>
          </mxGeometry>
        </mxCell>
        <mxCell id="4jsfSV7-COeRs6q7deXf-82" value="0" style="edgeLabel;html=1;align=center;verticalAlign=middle;resizable=0;points=[];rounded=0;" parent="4jsfSV7-COeRs6q7deXf-81" vertex="1" connectable="0">
          <mxGeometry x="-0.8898" y="-1" relative="1" as="geometry">
            <mxPoint y="8" as="offset" />
          </mxGeometry>
        </mxCell>
        <mxCell id="4jsfSV7-COeRs6q7deXf-83" value="tick" style="rhombus;whiteSpace=wrap;html=1;rounded=0;" parent="4jsfSV7-COeRs6q7deXf-76" vertex="1">
          <mxGeometry x="27.241500000000002" y="217.93497306493413" width="136.2075" height="61.53433727989344" as="geometry" />
        </mxCell>
        <mxCell id="4jsfSV7-COeRs6q7deXf-84" value="" style="group;rounded=0;" parent="IZnmvI-X00dT2r78mMLM-128" vertex="1" connectable="0">
          <mxGeometry x="708.2790000000001" y="367.7586206896552" width="163.449" height="313.2758620689655" as="geometry" />
        </mxCell>
        <mxCell id="4jsfSV7-COeRs6q7deXf-85" style="edgeStyle=orthogonalEdgeStyle;rounded=0;orthogonalLoop=1;jettySize=auto;html=1;entryX=0.5;entryY=0;entryDx=0;entryDy=0;" parent="4jsfSV7-COeRs6q7deXf-84" source="4jsfSV7-COeRs6q7deXf-86" target="4jsfSV7-COeRs6q7deXf-88" edge="1">
          <mxGeometry relative="1" as="geometry" />
        </mxCell>
        <mxCell id="4jsfSV7-COeRs6q7deXf-86" value="D5" style="ellipse;whiteSpace=wrap;html=1;aspect=fixed;rounded=0;" parent="4jsfSV7-COeRs6q7deXf-84" vertex="1">
          <mxGeometry x="51.75885" width="87.17364447984906" height="87.17364447984906" as="geometry" />
        </mxCell>
        <mxCell id="4jsfSV7-COeRs6q7deXf-87" style="edgeStyle=orthogonalEdgeStyle;rounded=0;orthogonalLoop=1;jettySize=auto;html=1;entryX=0.5;entryY=0;entryDx=0;entryDy=0;" parent="4jsfSV7-COeRs6q7deXf-84" source="4jsfSV7-COeRs6q7deXf-88" target="4jsfSV7-COeRs6q7deXf-91" edge="1">
          <mxGeometry relative="1" as="geometry" />
        </mxCell>
        <mxCell id="4jsfSV7-COeRs6q7deXf-88" value="DATA[5]" style="rounded=0;whiteSpace=wrap;html=1;" parent="4jsfSV7-COeRs6q7deXf-84" vertex="1">
          <mxGeometry x="27.241500000000002" y="122.59098651210167" width="136.2075" height="49.227469823914745" as="geometry" />
        </mxCell>
        <mxCell id="4jsfSV7-COeRs6q7deXf-89" style="edgeStyle=orthogonalEdgeStyle;rounded=0;orthogonalLoop=1;jettySize=auto;html=1;entryX=0;entryY=0.5;entryDx=0;entryDy=0;" parent="4jsfSV7-COeRs6q7deXf-84" source="4jsfSV7-COeRs6q7deXf-91" target="4jsfSV7-COeRs6q7deXf-86" edge="1">
          <mxGeometry relative="1" as="geometry">
            <Array as="points">
              <mxPoint y="249.25862068965517" />
              <mxPoint y="43.58620689655172" />
            </Array>
          </mxGeometry>
        </mxCell>
        <mxCell id="4jsfSV7-COeRs6q7deXf-90" value="0" style="edgeLabel;html=1;align=center;verticalAlign=middle;resizable=0;points=[];rounded=0;" parent="4jsfSV7-COeRs6q7deXf-89" vertex="1" connectable="0">
          <mxGeometry x="-0.8898" y="-1" relative="1" as="geometry">
            <mxPoint y="8" as="offset" />
          </mxGeometry>
        </mxCell>
        <mxCell id="4jsfSV7-COeRs6q7deXf-91" value="tick" style="rhombus;whiteSpace=wrap;html=1;rounded=0;" parent="4jsfSV7-COeRs6q7deXf-84" vertex="1">
          <mxGeometry x="27.241500000000002" y="217.93497306493413" width="136.2075" height="61.53433727989344" as="geometry" />
        </mxCell>
        <mxCell id="4jsfSV7-COeRs6q7deXf-92" style="edgeStyle=orthogonalEdgeStyle;rounded=0;orthogonalLoop=1;jettySize=auto;html=1;entryX=0.5;entryY=0;entryDx=0;entryDy=0;" parent="IZnmvI-X00dT2r78mMLM-128" source="4jsfSV7-COeRs6q7deXf-83" target="4jsfSV7-COeRs6q7deXf-86" edge="1">
          <mxGeometry relative="1" as="geometry">
            <mxPoint x="803.6248653460991" y="340.51724137931035" as="targetPoint" />
          </mxGeometry>
        </mxCell>
        <mxCell id="4jsfSV7-COeRs6q7deXf-93" value="1" style="edgeLabel;html=1;align=center;verticalAlign=middle;resizable=0;points=[];rounded=0;" parent="4jsfSV7-COeRs6q7deXf-92" vertex="1" connectable="0">
          <mxGeometry x="0.4426" y="1" relative="1" as="geometry">
            <mxPoint x="-11" y="-23" as="offset" />
          </mxGeometry>
        </mxCell>
        <mxCell id="4jsfSV7-COeRs6q7deXf-94" value="" style="group;rounded=0;" parent="IZnmvI-X00dT2r78mMLM-128" vertex="1" connectable="0">
          <mxGeometry x="926.2110000000001" y="27.241379310344826" width="163.449" height="313.2758620689655" as="geometry" />
        </mxCell>
        <mxCell id="4jsfSV7-COeRs6q7deXf-95" style="edgeStyle=orthogonalEdgeStyle;rounded=0;orthogonalLoop=1;jettySize=auto;html=1;entryX=0.5;entryY=0;entryDx=0;entryDy=0;" parent="4jsfSV7-COeRs6q7deXf-94" source="4jsfSV7-COeRs6q7deXf-96" target="4jsfSV7-COeRs6q7deXf-98" edge="1">
          <mxGeometry relative="1" as="geometry" />
        </mxCell>
        <mxCell id="4jsfSV7-COeRs6q7deXf-96" value="D6" style="ellipse;whiteSpace=wrap;html=1;aspect=fixed;rounded=0;" parent="4jsfSV7-COeRs6q7deXf-94" vertex="1">
          <mxGeometry x="51.75885" width="87.17364447984906" height="87.17364447984906" as="geometry" />
        </mxCell>
        <mxCell id="4jsfSV7-COeRs6q7deXf-97" style="edgeStyle=orthogonalEdgeStyle;rounded=0;orthogonalLoop=1;jettySize=auto;html=1;entryX=0.5;entryY=0;entryDx=0;entryDy=0;" parent="4jsfSV7-COeRs6q7deXf-94" source="4jsfSV7-COeRs6q7deXf-98" target="4jsfSV7-COeRs6q7deXf-101" edge="1">
          <mxGeometry relative="1" as="geometry" />
        </mxCell>
        <mxCell id="4jsfSV7-COeRs6q7deXf-98" value="DATA[6]" style="rounded=0;whiteSpace=wrap;html=1;" parent="4jsfSV7-COeRs6q7deXf-94" vertex="1">
          <mxGeometry x="27.241500000000002" y="122.59098651210167" width="136.2075" height="49.227469823914745" as="geometry" />
        </mxCell>
        <mxCell id="4jsfSV7-COeRs6q7deXf-99" style="edgeStyle=orthogonalEdgeStyle;rounded=0;orthogonalLoop=1;jettySize=auto;html=1;entryX=0;entryY=0.5;entryDx=0;entryDy=0;" parent="4jsfSV7-COeRs6q7deXf-94" source="4jsfSV7-COeRs6q7deXf-101" target="4jsfSV7-COeRs6q7deXf-96" edge="1">
          <mxGeometry relative="1" as="geometry">
            <Array as="points">
              <mxPoint y="249.25862068965517" />
              <mxPoint y="43.58620689655172" />
            </Array>
          </mxGeometry>
        </mxCell>
        <mxCell id="4jsfSV7-COeRs6q7deXf-100" value="0" style="edgeLabel;html=1;align=center;verticalAlign=middle;resizable=0;points=[];rounded=0;" parent="4jsfSV7-COeRs6q7deXf-99" vertex="1" connectable="0">
          <mxGeometry x="-0.8898" y="-1" relative="1" as="geometry">
            <mxPoint y="8" as="offset" />
          </mxGeometry>
        </mxCell>
        <mxCell id="4jsfSV7-COeRs6q7deXf-101" value="tick" style="rhombus;whiteSpace=wrap;html=1;rounded=0;" parent="4jsfSV7-COeRs6q7deXf-94" vertex="1">
          <mxGeometry x="27.241500000000002" y="217.93497306493413" width="136.2075" height="61.53433727989344" as="geometry" />
        </mxCell>
        <mxCell id="4jsfSV7-COeRs6q7deXf-102" value="" style="group;rounded=0;" parent="IZnmvI-X00dT2r78mMLM-128" vertex="1" connectable="0">
          <mxGeometry x="926.2110000000001" y="367.7586206896552" width="163.449" height="313.2758620689655" as="geometry" />
        </mxCell>
        <mxCell id="4jsfSV7-COeRs6q7deXf-103" style="edgeStyle=orthogonalEdgeStyle;rounded=0;orthogonalLoop=1;jettySize=auto;html=1;entryX=0.5;entryY=0;entryDx=0;entryDy=0;" parent="4jsfSV7-COeRs6q7deXf-102" source="4jsfSV7-COeRs6q7deXf-104" target="4jsfSV7-COeRs6q7deXf-106" edge="1">
          <mxGeometry relative="1" as="geometry" />
        </mxCell>
        <mxCell id="4jsfSV7-COeRs6q7deXf-104" value="D7" style="ellipse;whiteSpace=wrap;html=1;aspect=fixed;rounded=0;" parent="4jsfSV7-COeRs6q7deXf-102" vertex="1">
          <mxGeometry x="51.75885" width="87.17364447984906" height="87.17364447984906" as="geometry" />
        </mxCell>
        <mxCell id="4jsfSV7-COeRs6q7deXf-105" style="edgeStyle=orthogonalEdgeStyle;rounded=0;orthogonalLoop=1;jettySize=auto;html=1;entryX=0.5;entryY=0;entryDx=0;entryDy=0;" parent="4jsfSV7-COeRs6q7deXf-102" source="4jsfSV7-COeRs6q7deXf-106" target="4jsfSV7-COeRs6q7deXf-111" edge="1">
          <mxGeometry relative="1" as="geometry" />
        </mxCell>
        <mxCell id="4jsfSV7-COeRs6q7deXf-106" value="DATA[7]" style="rounded=0;whiteSpace=wrap;html=1;" parent="4jsfSV7-COeRs6q7deXf-102" vertex="1">
          <mxGeometry x="27.241500000000002" y="122.59098651210167" width="136.2075" height="49.227469823914745" as="geometry" />
        </mxCell>
        <mxCell id="4jsfSV7-COeRs6q7deXf-107" style="edgeStyle=orthogonalEdgeStyle;rounded=0;orthogonalLoop=1;jettySize=auto;html=1;entryX=0;entryY=0.5;entryDx=0;entryDy=0;" parent="4jsfSV7-COeRs6q7deXf-102" source="4jsfSV7-COeRs6q7deXf-111" target="4jsfSV7-COeRs6q7deXf-104" edge="1">
          <mxGeometry relative="1" as="geometry">
            <Array as="points">
              <mxPoint y="249.25862068965517" />
              <mxPoint y="43.58620689655172" />
            </Array>
          </mxGeometry>
        </mxCell>
        <mxCell id="4jsfSV7-COeRs6q7deXf-108" value="0" style="edgeLabel;html=1;align=center;verticalAlign=middle;resizable=0;points=[];rounded=0;" parent="4jsfSV7-COeRs6q7deXf-107" vertex="1" connectable="0">
          <mxGeometry x="-0.8898" y="-1" relative="1" as="geometry">
            <mxPoint y="8" as="offset" />
          </mxGeometry>
        </mxCell>
        <mxCell id="4jsfSV7-COeRs6q7deXf-111" value="tick" style="rhombus;whiteSpace=wrap;html=1;rounded=0;" parent="4jsfSV7-COeRs6q7deXf-102" vertex="1">
          <mxGeometry x="27.241500000000002" y="217.93497306493413" width="136.2075" height="61.53433727989344" as="geometry" />
        </mxCell>
        <mxCell id="4jsfSV7-COeRs6q7deXf-112" style="edgeStyle=orthogonalEdgeStyle;rounded=0;orthogonalLoop=1;jettySize=auto;html=1;entryX=0.5;entryY=0;entryDx=0;entryDy=0;" parent="IZnmvI-X00dT2r78mMLM-128" source="4jsfSV7-COeRs6q7deXf-101" target="4jsfSV7-COeRs6q7deXf-104" edge="1">
          <mxGeometry relative="1" as="geometry">
            <mxPoint x="1021.5568653460991" y="340.51724137931035" as="targetPoint" />
          </mxGeometry>
        </mxCell>
        <mxCell id="4jsfSV7-COeRs6q7deXf-113" value="1" style="edgeLabel;html=1;align=center;verticalAlign=middle;resizable=0;points=[];rounded=0;" parent="4jsfSV7-COeRs6q7deXf-112" vertex="1" connectable="0">
          <mxGeometry x="0.4426" y="1" relative="1" as="geometry">
            <mxPoint x="-11" y="-23" as="offset" />
          </mxGeometry>
        </mxCell>
        <mxCell id="4jsfSV7-COeRs6q7deXf-114" style="edgeStyle=orthogonalEdgeStyle;rounded=0;orthogonalLoop=1;jettySize=auto;html=1;entryX=0.5;entryY=0;entryDx=0;entryDy=0;" parent="IZnmvI-X00dT2r78mMLM-128" source="4jsfSV7-COeRs6q7deXf-91" target="4jsfSV7-COeRs6q7deXf-96" edge="1">
          <mxGeometry relative="1" as="geometry">
            <mxPoint x="803.6248653460991" y="681.0344827586207" as="targetPoint" />
            <Array as="points">
              <mxPoint x="898.9695000000002" y="617.0172413793103" />
              <mxPoint x="898.9695000000002" />
              <mxPoint x="1021.5562500000001" />
            </Array>
          </mxGeometry>
        </mxCell>
        <mxCell id="4jsfSV7-COeRs6q7deXf-115" value="1" style="edgeLabel;html=1;align=center;verticalAlign=middle;resizable=0;points=[];rounded=0;" parent="4jsfSV7-COeRs6q7deXf-114" vertex="1" connectable="0">
          <mxGeometry x="0.4426" y="1" relative="1" as="geometry">
            <mxPoint x="-24" y="529" as="offset" />
          </mxGeometry>
        </mxCell>
        <mxCell id="4jsfSV7-COeRs6q7deXf-71" style="edgeStyle=orthogonalEdgeStyle;rounded=0;orthogonalLoop=1;jettySize=auto;html=1;entryX=0.5;entryY=0;entryDx=0;entryDy=0;" parent="IZnmvI-X00dT2r78mMLM-128" source="4jsfSV7-COeRs6q7deXf-73" target="4jsfSV7-COeRs6q7deXf-78" edge="1">
          <mxGeometry relative="1" as="geometry">
            <mxPoint x="585.6928653460991" y="681.0344827586207" as="targetPoint" />
            <Array as="points">
              <mxPoint x="681.0375" y="617.0172413793103" />
              <mxPoint x="681.0375" />
              <mxPoint x="803.6242500000001" />
            </Array>
          </mxGeometry>
        </mxCell>
        <mxCell id="4jsfSV7-COeRs6q7deXf-72" value="1" style="edgeLabel;html=1;align=center;verticalAlign=middle;resizable=0;points=[];rounded=0;" parent="4jsfSV7-COeRs6q7deXf-71" vertex="1" connectable="0">
          <mxGeometry x="0.4426" y="1" relative="1" as="geometry">
            <mxPoint x="-24" y="529" as="offset" />
          </mxGeometry>
        </mxCell>
        <mxCell id="4jsfSV7-COeRs6q7deXf-34" value="" style="group;rounded=0;" parent="IZnmvI-X00dT2r78mMLM-128" vertex="1" connectable="0">
          <mxGeometry x="272.415" y="27.241379310344826" width="163.449" height="313.2758620689655" as="geometry" />
        </mxCell>
        <mxCell id="4jsfSV7-COeRs6q7deXf-35" style="edgeStyle=orthogonalEdgeStyle;rounded=0;orthogonalLoop=1;jettySize=auto;html=1;entryX=0.5;entryY=0;entryDx=0;entryDy=0;" parent="4jsfSV7-COeRs6q7deXf-34" source="4jsfSV7-COeRs6q7deXf-36" target="4jsfSV7-COeRs6q7deXf-38" edge="1">
          <mxGeometry relative="1" as="geometry" />
        </mxCell>
        <mxCell id="4jsfSV7-COeRs6q7deXf-36" value="D0" style="ellipse;whiteSpace=wrap;html=1;aspect=fixed;rounded=0;" parent="4jsfSV7-COeRs6q7deXf-34" vertex="1">
          <mxGeometry x="51.75885" width="87.17364447984906" height="87.17364447984906" as="geometry" />
        </mxCell>
        <mxCell id="4jsfSV7-COeRs6q7deXf-37" style="edgeStyle=orthogonalEdgeStyle;rounded=0;orthogonalLoop=1;jettySize=auto;html=1;entryX=0.5;entryY=0;entryDx=0;entryDy=0;" parent="4jsfSV7-COeRs6q7deXf-34" source="4jsfSV7-COeRs6q7deXf-38" target="4jsfSV7-COeRs6q7deXf-43" edge="1">
          <mxGeometry relative="1" as="geometry" />
        </mxCell>
        <mxCell id="4jsfSV7-COeRs6q7deXf-38" value="DATA[0]" style="rounded=0;whiteSpace=wrap;html=1;" parent="4jsfSV7-COeRs6q7deXf-34" vertex="1">
          <mxGeometry x="27.241500000000002" y="122.59098651210167" width="136.2075" height="49.227469823914745" as="geometry" />
        </mxCell>
        <mxCell id="4jsfSV7-COeRs6q7deXf-39" style="edgeStyle=orthogonalEdgeStyle;rounded=0;orthogonalLoop=1;jettySize=auto;html=1;entryX=0;entryY=0.5;entryDx=0;entryDy=0;" parent="4jsfSV7-COeRs6q7deXf-34" source="4jsfSV7-COeRs6q7deXf-43" target="4jsfSV7-COeRs6q7deXf-36" edge="1">
          <mxGeometry relative="1" as="geometry">
            <Array as="points">
              <mxPoint y="249.25862068965517" />
              <mxPoint y="43.58620689655172" />
            </Array>
          </mxGeometry>
        </mxCell>
        <mxCell id="4jsfSV7-COeRs6q7deXf-40" value="0" style="edgeLabel;html=1;align=center;verticalAlign=middle;resizable=0;points=[];rounded=0;" parent="4jsfSV7-COeRs6q7deXf-39" vertex="1" connectable="0">
          <mxGeometry x="-0.8898" y="-1" relative="1" as="geometry">
            <mxPoint y="8" as="offset" />
          </mxGeometry>
        </mxCell>
        <mxCell id="4jsfSV7-COeRs6q7deXf-43" value="tick" style="rhombus;whiteSpace=wrap;html=1;rounded=0;" parent="4jsfSV7-COeRs6q7deXf-34" vertex="1">
          <mxGeometry x="27.241500000000002" y="217.93497306493413" width="136.2075" height="61.53433727989344" as="geometry" />
        </mxCell>
        <mxCell id="4jsfSV7-COeRs6q7deXf-129" style="edgeStyle=orthogonalEdgeStyle;rounded=0;orthogonalLoop=1;jettySize=auto;html=1;entryX=0.5;entryY=0;entryDx=0;entryDy=0;" parent="IZnmvI-X00dT2r78mMLM-128" source="4jsfSV7-COeRs6q7deXf-124" target="4jsfSV7-COeRs6q7deXf-1" edge="1">
          <mxGeometry relative="1" as="geometry">
            <Array as="points">
              <mxPoint y="724.6206896551724" />
              <mxPoint />
              <mxPoint x="136.2075" />
            </Array>
          </mxGeometry>
        </mxCell>
        <mxCell id="4jsfSV7-COeRs6q7deXf-133" value="1" style="edgeLabel;html=1;align=center;verticalAlign=middle;resizable=0;points=[];rounded=0;" parent="4jsfSV7-COeRs6q7deXf-129" vertex="1" connectable="0">
          <mxGeometry x="-0.9708" y="1" relative="1" as="geometry">
            <mxPoint y="-9" as="offset" />
          </mxGeometry>
        </mxCell>
        <mxCell id="4jsfSV7-COeRs6q7deXf-128" style="edgeStyle=orthogonalEdgeStyle;rounded=0;orthogonalLoop=1;jettySize=auto;html=1;entryX=0.5;entryY=0;entryDx=0;entryDy=0;" parent="IZnmvI-X00dT2r78mMLM-128" source="4jsfSV7-COeRs6q7deXf-111" target="4jsfSV7-COeRs6q7deXf-119" edge="1">
          <mxGeometry relative="1" as="geometry" />
        </mxCell>
        <mxCell id="4jsfSV7-COeRs6q7deXf-132" value="1&lt;div&gt;&lt;br&gt;&lt;/div&gt;" style="edgeLabel;html=1;align=center;verticalAlign=middle;resizable=0;points=[];rounded=0;" parent="4jsfSV7-COeRs6q7deXf-128" vertex="1" connectable="0">
          <mxGeometry x="0.0511" relative="1" as="geometry">
            <mxPoint x="5" y="6" as="offset" />
          </mxGeometry>
        </mxCell>
        <mxCell id="4jsfSV7-COeRs6q7deXf-130" value="" style="group;rounded=0;" parent="IZnmvI-X00dT2r78mMLM-128" vertex="1" connectable="0">
          <mxGeometry x="517.5885000000001" y="681.0344827586207" width="547.555380692198" height="108.9655172413793" as="geometry" />
        </mxCell>
        <mxCell id="4jsfSV7-COeRs6q7deXf-124" value="tick" style="rhombus;whiteSpace=wrap;html=1;rounded=0;" parent="4jsfSV7-COeRs6q7deXf-130" vertex="1">
          <mxGeometry y="12.821007547692789" width="136.2075" height="61.53433727989344" as="geometry" />
        </mxCell>
        <mxCell id="4jsfSV7-COeRs6q7deXf-122" style="edgeStyle=orthogonalEdgeStyle;rounded=0;orthogonalLoop=1;jettySize=auto;html=1;entryX=0.5;entryY=1;entryDx=0;entryDy=0;exitX=0.5;exitY=1;exitDx=0;exitDy=0;" parent="4jsfSV7-COeRs6q7deXf-130" source="4jsfSV7-COeRs6q7deXf-124" target="4jsfSV7-COeRs6q7deXf-119" edge="1">
          <mxGeometry relative="1" as="geometry">
            <Array as="points">
              <mxPoint x="68.10375" y="108.9655172413793" />
              <mxPoint x="503.9677500000001" y="108.9655172413793" />
            </Array>
            <mxPoint x="81.7245" y="81.72413793103448" as="sourcePoint" />
            <mxPoint x="435.86400000000003" y="95.34482758620689" as="targetPoint" />
          </mxGeometry>
        </mxCell>
        <mxCell id="4jsfSV7-COeRs6q7deXf-123" value="0" style="edgeLabel;html=1;align=center;verticalAlign=middle;resizable=0;points=[];rounded=0;" parent="4jsfSV7-COeRs6q7deXf-122" vertex="1" connectable="0">
          <mxGeometry x="-0.8898" y="-1" relative="1" as="geometry">
            <mxPoint x="-5" y="-12" as="offset" />
          </mxGeometry>
        </mxCell>
        <mxCell id="4jsfSV7-COeRs6q7deXf-127" style="edgeStyle=orthogonalEdgeStyle;rounded=0;orthogonalLoop=1;jettySize=auto;html=1;entryX=1;entryY=0.5;entryDx=0;entryDy=0;" parent="4jsfSV7-COeRs6q7deXf-130" source="4jsfSV7-COeRs6q7deXf-121" target="4jsfSV7-COeRs6q7deXf-124" edge="1">
          <mxGeometry relative="1" as="geometry" />
        </mxCell>
        <mxCell id="4jsfSV7-COeRs6q7deXf-118" style="edgeStyle=orthogonalEdgeStyle;rounded=0;orthogonalLoop=1;jettySize=auto;html=1;entryX=1;entryY=0.5;entryDx=0;entryDy=0;" parent="4jsfSV7-COeRs6q7deXf-130" source="4jsfSV7-COeRs6q7deXf-119" target="4jsfSV7-COeRs6q7deXf-121" edge="1">
          <mxGeometry relative="1" as="geometry" />
        </mxCell>
        <mxCell id="4jsfSV7-COeRs6q7deXf-121" value="1" style="rounded=0;whiteSpace=wrap;html=1;" parent="4jsfSV7-COeRs6q7deXf-130" vertex="1">
          <mxGeometry x="217.93200000000002" y="19.07374513279134" width="136.2075" height="49.227469823914745" as="geometry" />
        </mxCell>
        <mxCell id="4jsfSV7-COeRs6q7deXf-119" value="STOP" style="ellipse;whiteSpace=wrap;html=1;aspect=fixed;rounded=0;" parent="4jsfSV7-COeRs6q7deXf-130" vertex="1">
          <mxGeometry x="460.38135000000005" width="87.17364447984906" height="87.17364447984906" as="geometry" />
        </mxCell>
        <mxCell id="8xURcJbiqNsAu30NZQSO-2" value="ASM 다이얼로그를 최대한 &quot;자세하게&quot; 그려야 설계중 오류베제에 도움이 된다" style="text;html=1;align=center;verticalAlign=middle;resizable=0;points=[];autosize=1;strokeColor=none;fillColor=none;" parent="IZnmvI-X00dT2r78mMLM-128" vertex="1">
          <mxGeometry x="20" y="760" width="430" height="30" as="geometry" />
        </mxCell>
        <mxCell id="IZnmvI-X00dT2r78mMLM-126" value="" style="group" vertex="1" connectable="0" parent="IZnmvI-X00dT2r78mMLM-128">
          <mxGeometry x="40.86225" y="27.241379310344826" width="163.449" height="313.2793103448276" as="geometry" />
        </mxCell>
        <mxCell id="4jsfSV7-COeRs6q7deXf-14" value="" style="group;rounded=0;" parent="IZnmvI-X00dT2r78mMLM-126" vertex="1" connectable="0">
          <mxGeometry width="163.449" height="313.2793103448276" as="geometry" />
        </mxCell>
        <mxCell id="4jsfSV7-COeRs6q7deXf-7" style="edgeStyle=orthogonalEdgeStyle;rounded=0;orthogonalLoop=1;jettySize=auto;html=1;entryX=0.5;entryY=0;entryDx=0;entryDy=0;" parent="4jsfSV7-COeRs6q7deXf-14" source="4jsfSV7-COeRs6q7deXf-1" target="4jsfSV7-COeRs6q7deXf-2" edge="1">
          <mxGeometry relative="1" as="geometry" />
        </mxCell>
        <mxCell id="4jsfSV7-COeRs6q7deXf-1" value="IDLE" style="ellipse;whiteSpace=wrap;html=1;aspect=fixed;rounded=0;" parent="4jsfSV7-COeRs6q7deXf-14" vertex="1">
          <mxGeometry x="51.75885" width="87.17364447984906" height="87.17364447984906" as="geometry" />
        </mxCell>
        <mxCell id="4jsfSV7-COeRs6q7deXf-8" style="edgeStyle=orthogonalEdgeStyle;rounded=0;orthogonalLoop=1;jettySize=auto;html=1;entryX=0.5;entryY=0;entryDx=0;entryDy=0;" parent="4jsfSV7-COeRs6q7deXf-14" source="4jsfSV7-COeRs6q7deXf-2" target="4jsfSV7-COeRs6q7deXf-3" edge="1">
          <mxGeometry relative="1" as="geometry" />
        </mxCell>
        <mxCell id="4jsfSV7-COeRs6q7deXf-2" value="1" style="rounded=0;whiteSpace=wrap;html=1;" parent="4jsfSV7-COeRs6q7deXf-14" vertex="1">
          <mxGeometry x="27.241500000000002" y="122.59098651210167" width="136.2075" height="49.227469823914745" as="geometry" />
        </mxCell>
        <mxCell id="4jsfSV7-COeRs6q7deXf-9" style="edgeStyle=orthogonalEdgeStyle;rounded=0;orthogonalLoop=1;jettySize=auto;html=1;entryX=0;entryY=0.5;entryDx=0;entryDy=0;" parent="4jsfSV7-COeRs6q7deXf-14" source="4jsfSV7-COeRs6q7deXf-3" target="4jsfSV7-COeRs6q7deXf-1" edge="1">
          <mxGeometry relative="1" as="geometry">
            <Array as="points">
              <mxPoint x="19" y="214" />
              <mxPoint y="213" />
              <mxPoint y="44" />
            </Array>
          </mxGeometry>
        </mxCell>
        <mxCell id="4jsfSV7-COeRs6q7deXf-10" value="0" style="edgeLabel;html=1;align=center;verticalAlign=middle;resizable=0;points=[];rounded=0;" parent="4jsfSV7-COeRs6q7deXf-9" vertex="1" connectable="0">
          <mxGeometry x="-0.8898" y="-1" relative="1" as="geometry">
            <mxPoint y="8" as="offset" />
          </mxGeometry>
        </mxCell>
        <mxCell id="IZnmvI-X00dT2r78mMLM-118" style="edgeStyle=orthogonalEdgeStyle;rounded=0;orthogonalLoop=1;jettySize=auto;html=1;" edge="1" parent="4jsfSV7-COeRs6q7deXf-14" source="4jsfSV7-COeRs6q7deXf-3" target="IZnmvI-X00dT2r78mMLM-115">
          <mxGeometry relative="1" as="geometry" />
        </mxCell>
        <mxCell id="4jsfSV7-COeRs6q7deXf-3" value="start" style="rhombus;whiteSpace=wrap;html=1;rounded=0;" parent="4jsfSV7-COeRs6q7deXf-14" vertex="1">
          <mxGeometry x="27.241500000000002" y="182.75497306493412" width="136.2075" height="61.53433727989344" as="geometry" />
        </mxCell>
        <mxCell id="IZnmvI-X00dT2r78mMLM-123" style="edgeStyle=orthogonalEdgeStyle;rounded=0;orthogonalLoop=1;jettySize=auto;html=1;entryX=1;entryY=0.5;entryDx=0;entryDy=0;" edge="1" parent="4jsfSV7-COeRs6q7deXf-14" source="IZnmvI-X00dT2r78mMLM-115" target="4jsfSV7-COeRs6q7deXf-3">
          <mxGeometry relative="1" as="geometry">
            <Array as="points">
              <mxPoint x="183" y="294" />
              <mxPoint x="183" y="214" />
            </Array>
          </mxGeometry>
        </mxCell>
        <mxCell id="IZnmvI-X00dT2r78mMLM-124" value="0" style="edgeLabel;html=1;align=center;verticalAlign=middle;resizable=0;points=[];" vertex="1" connectable="0" parent="IZnmvI-X00dT2r78mMLM-123">
          <mxGeometry x="-0.7935" y="1" relative="1" as="geometry">
            <mxPoint x="-12" y="-10" as="offset" />
          </mxGeometry>
        </mxCell>
        <mxCell id="IZnmvI-X00dT2r78mMLM-115" value="tick" style="rhombus;whiteSpace=wrap;html=1;rounded=0;" vertex="1" parent="4jsfSV7-COeRs6q7deXf-14">
          <mxGeometry x="27.241500000000002" y="262.7549730649341" width="136.2075" height="61.53433727989344" as="geometry" />
        </mxCell>
        <mxCell id="IZnmvI-X00dT2r78mMLM-121" style="edgeStyle=orthogonalEdgeStyle;rounded=0;orthogonalLoop=1;jettySize=auto;html=1;exitX=0.5;exitY=1;exitDx=0;exitDy=0;entryX=0.5;entryY=0;entryDx=0;entryDy=0;" edge="1" parent="IZnmvI-X00dT2r78mMLM-128" source="IZnmvI-X00dT2r78mMLM-115" target="4jsfSV7-COeRs6q7deXf-26">
          <mxGeometry relative="1" as="geometry" />
        </mxCell>
        <mxCell id="IZnmvI-X00dT2r78mMLM-125" value="1" style="edgeLabel;html=1;align=center;verticalAlign=middle;resizable=0;points=[];" vertex="1" connectable="0" parent="IZnmvI-X00dT2r78mMLM-121">
          <mxGeometry x="0.167" y="2" relative="1" as="geometry">
            <mxPoint x="7" y="-2" as="offset" />
          </mxGeometry>
        </mxCell>
      </root>
    </mxGraphModel>
  </diagram>
</mxfile>
